<svg width="45" height="45" viewBox="0 0 45 45" fill="none" xmlns="http://www.w3.org/2000/svg">
    <mask id="mask0_20_531" style="mask-type:alpha" maskUnits="userSpaceOnUse" x="0" y="0" width="45" height="45">
        <rect width="45" height="45" fill="#D9D9D9"/>
    </mask>
    <g mask="url(#mask0_20_531)">
        <path d="M11.3438 35.5313H18.1875V24.5156H26.8125V35.5313H33.6563V18.7969L22.5 10.3594L11.3438 18.75V35.5313ZM11.3438 37.2188C10.9063 37.2188 10.5156 37.0469 10.1719 36.7031C9.82813 36.3594 9.65625 35.9688 9.65625 35.5313V18.7969C9.65625 18.5156 9.71125 18.25 9.82125 18C9.93 17.75 10.0937 17.5469 10.3125 17.3906L21.4687 9C21.625 8.875 21.7894 8.78875 21.9619 8.74125C22.1331 8.695 22.3125 8.67188 22.5 8.67188C22.6875 8.67188 22.8675 8.695 23.04 8.74125C23.2113 8.78875 23.375 8.875 23.5312 9L34.6875 17.3906C34.9062 17.5469 35.0706 17.75 35.1806 18C35.2894 18.25 35.3438 18.5156 35.3438 18.7969V35.5313C35.3438 35.9688 35.1719 36.3594 34.8281 36.7031C34.4844 37.0469 34.0938 37.2188 33.6563 37.2188H25.0781V26.25H19.9219V37.2188H11.3438Z" fill="#888888"/>
    </g>
</svg>
