<svg width="45" height="45" viewBox="0 0 45 45" fill="none" xmlns="http://www.w3.org/2000/svg">
    <mask id="mask0_194_539" style="mask-type:alpha" maskUnits="userSpaceOnUse" x="0" y="0" width="45" height="45">
        <rect width="45" height="45" fill="#C9DEF7"/>
    </mask>
    <g mask="url(#mask0_194_539)">
        <path d="M19.406 19.7344H30.8435C31.0935 19.7344 31.3048 19.6562 31.4773 19.5C31.6485 19.3437 31.7341 19.1406 31.7341 18.8906C31.7341 18.6406 31.6485 18.43 31.4773 18.2587C31.3048 18.0862 31.0935 18 30.8435 18H19.406C19.1873 18 18.9923 18.0862 18.821 18.2587C18.6485 18.43 18.5623 18.6406 18.5623 18.8906C18.5623 19.1406 18.6485 19.3437 18.821 19.5C18.9923 19.6562 19.1873 19.7344 19.406 19.7344ZM19.406 25.1719H24.5154C24.7654 25.1719 24.9766 25.0856 25.1491 24.9131C25.3204 24.7419 25.406 24.5312 25.406 24.2812C25.406 24.0625 25.3204 23.8669 25.1491 23.6944C24.9766 23.5231 24.7654 23.4375 24.5154 23.4375H19.406C19.1873 23.4375 18.9923 23.5231 18.821 23.6944C18.6485 23.8669 18.5623 24.0625 18.5623 24.2812C18.5623 24.5312 18.6485 24.7419 18.821 24.9131C18.9923 25.0856 19.1873 25.1719 19.406 25.1719ZM19.406 14.3438H30.8435C31.0935 14.3438 31.3048 14.2575 31.4773 14.085C31.6485 13.9137 31.7341 13.7031 31.7341 13.4531C31.7341 13.2344 31.6485 13.0387 31.4773 12.8662C31.3048 12.695 31.0935 12.6094 30.8435 12.6094H19.406C19.1873 12.6094 18.9923 12.695 18.821 12.8662C18.6485 13.0387 18.5623 13.25 18.5623 13.5C18.5623 13.7187 18.6485 13.9137 18.821 14.085C18.9923 14.2575 19.1873 14.3438 19.406 14.3438ZM15.0935 31.875C14.281 31.875 13.5935 31.5937 13.031 31.0312C12.4685 30.4687 12.1873 29.7812 12.1873 28.9687V8.8125C12.1873 8 12.4685 7.3125 13.031 6.75C13.5935 6.1875 14.281 5.90625 15.0935 5.90625H35.2498C36.0623 5.90625 36.7498 6.1875 37.3123 6.75C37.8748 7.3125 38.156 8 38.156 8.8125V28.9687C38.156 29.7812 37.8748 30.4687 37.3123 31.0312C36.7498 31.5937 36.0623 31.875 35.2498 31.875H15.0935ZM9.74976 37.2188C8.93726 37.2188 8.24976 36.9375 7.68726 36.375C7.12476 35.8125 6.84351 35.125 6.84351 34.3125V13.2656C6.84351 13.0156 6.92976 12.8125 7.10226 12.6562C7.27351 12.5 7.48413 12.4219 7.73413 12.4219C7.95288 12.4219 8.14851 12.5 8.32101 12.6562C8.49226 12.8125 8.57788 13.0156 8.57788 13.2656V34.3125C8.57788 34.6562 8.68726 34.9375 8.90601 35.1563C9.12476 35.375 9.40601 35.4844 9.74976 35.4844H30.7966C31.0466 35.4844 31.2498 35.57 31.406 35.7413C31.5623 35.9138 31.6404 36.1094 31.6404 36.3281C31.6404 36.5781 31.5623 36.7888 31.406 36.96C31.2498 37.1325 31.0466 37.2188 30.7966 37.2188H9.74976Z" fill="#3693FF"/>
    </g>
</svg>
