<svg width="45" height="45" viewBox="0 0 45 45" fill="none" xmlns="http://www.w3.org/2000/svg">
    <mask id="mask0_349_97" style="mask-type:alpha" maskUnits="userSpaceOnUse" x="0" y="0" width="45" height="45">
        <rect width="45" height="45" fill="#D9D9D9"/>
    </mask>
    <g mask="url(#mask0_349_97)">
        <path d="M19.4063 19.7344H30.8438C31.0938 19.7344 31.305 19.6562 31.4775 19.5C31.6488 19.3437 31.7344 19.1406 31.7344 18.8906C31.7344 18.6406 31.6488 18.43 31.4775 18.2587C31.305 18.0862 31.0938 18 30.8438 18H19.4063C19.1875 18 18.9925 18.0862 18.8212 18.2587C18.6488 18.43 18.5625 18.6406 18.5625 18.8906C18.5625 19.1406 18.6488 19.3437 18.8212 19.5C18.9925 19.6562 19.1875 19.7344 19.4063 19.7344ZM19.4063 25.1719H24.5156C24.7656 25.1719 24.9769 25.0856 25.1494 24.9131C25.3206 24.7419 25.4062 24.5312 25.4062 24.2812C25.4062 24.0625 25.3206 23.8669 25.1494 23.6944C24.9769 23.5231 24.7656 23.4375 24.5156 23.4375H19.4063C19.1875 23.4375 18.9925 23.5231 18.8212 23.6944C18.6488 23.8669 18.5625 24.0625 18.5625 24.2812C18.5625 24.5312 18.6488 24.7419 18.8212 24.9131C18.9925 25.0856 19.1875 25.1719 19.4063 25.1719ZM19.4063 14.3438H30.8438C31.0938 14.3438 31.305 14.2575 31.4775 14.085C31.6488 13.9137 31.7344 13.7187 31.7344 13.5C31.7344 13.25 31.6488 13.0387 31.4775 12.8663C31.305 12.695 31.0938 12.6094 30.8438 12.6094H19.4063C19.1875 12.6094 18.9925 12.695 18.8212 12.8663C18.6488 13.0387 18.5625 13.25 18.5625 13.5C18.5625 13.7187 18.6488 13.9137 18.8212 14.085C18.9925 14.2575 19.1875 14.3438 19.4063 14.3438ZM15.0938 31.875C14.2812 31.875 13.5937 31.5938 13.0312 31.0312C12.4687 30.4688 12.1875 29.7812 12.1875 28.9687V8.8125C12.1875 8 12.4687 7.3125 13.0312 6.75C13.5937 6.1875 14.2812 5.90625 15.0938 5.90625H35.25C36.0625 5.90625 36.75 6.1875 37.3125 6.75C37.875 7.3125 38.1563 8 38.1563 8.8125V28.9687C38.1563 29.7812 37.875 30.4688 37.3125 31.0312C36.75 31.5938 36.0625 31.875 35.25 31.875H15.0938ZM15.0938 30.1406H35.25C35.5938 30.1406 35.875 30.0312 36.0938 29.8125C36.3125 29.5938 36.4219 29.3125 36.4219 28.9687V8.8125C36.4219 8.46875 36.3125 8.1875 36.0938 7.96875C35.875 7.75 35.5938 7.64062 35.25 7.64062H15.0938C14.75 7.64062 14.4687 7.75 14.25 7.96875C14.0312 8.1875 13.9219 8.46875 13.9219 8.8125V28.9687C13.9219 29.3125 14.0312 29.5938 14.25 29.8125C14.4687 30.0312 14.75 30.1406 15.0938 30.1406ZM9.75 37.2188C8.9375 37.2188 8.25 36.9375 7.6875 36.375C7.125 35.8125 6.84375 35.125 6.84375 34.3125V13.2656C6.84375 13.0469 6.93 12.8513 7.1025 12.6788C7.27375 12.5075 7.48437 12.4219 7.73437 12.4219C7.95312 12.4219 8.14875 12.5075 8.32125 12.6788C8.4925 12.8513 8.57812 13.0469 8.57812 13.2656V34.3125C8.57812 34.6562 8.6875 34.9375 8.90625 35.1562C9.125 35.375 9.40625 35.4844 9.75 35.4844H30.7969C31.0156 35.4844 31.2113 35.57 31.3838 35.7413C31.555 35.9138 31.6406 36.1094 31.6406 36.3281C31.6406 36.5781 31.555 36.7887 31.3838 36.96C31.2113 37.1325 31.0156 37.2188 30.7969 37.2188H9.75Z" fill="#888888"/>
    </g>
</svg>
