<svg width="45" height="45" viewBox="0 0 45 45" fill="none" xmlns="http://www.w3.org/2000/svg">
    <mask id="mask0_20_522" style="mask-type:alpha" maskUnits="userSpaceOnUse" x="0" y="0" width="45" height="45">
        <rect width="45" height="45" fill="#D9D9D9"/>
    </mask>
    <g mask="url(#mask0_20_522)">
        <path d="M35.7656 36.9375L24.7969 25.9219C23.8594 26.7031 22.7812 27.3125 21.5625 27.75C20.3438 28.1875 19.1406 28.4062 17.9531 28.4062C14.9844 28.4062 12.4844 27.3825 10.4531 25.335C8.42187 23.2887 7.40625 20.7969 7.40625 17.8594C7.40625 14.9219 8.42187 12.4294 10.4531 10.3819C12.4844 8.33563 14.9688 7.3125 17.9063 7.3125C20.875 7.3125 23.3825 8.32812 25.4288 10.3594C27.4763 12.3906 28.5 14.8906 28.5 17.8594C28.5 19.1406 28.2656 20.3906 27.7969 21.6094C27.3281 22.8281 26.7344 23.8594 26.0156 24.7031L37.0781 35.7188C37.2344 35.875 37.305 36.0706 37.29 36.3056C37.2738 36.5394 37.1875 36.75 37.0312 36.9375C36.8125 37.125 36.5938 37.2188 36.375 37.2188C36.1562 37.2188 35.9531 37.125 35.7656 36.9375ZM17.9531 26.6719C20.4219 26.6719 22.5081 25.8206 24.2119 24.1181C25.9144 22.4144 26.7656 20.3281 26.7656 17.8594C26.7656 15.3594 25.9144 13.2656 24.2119 11.5781C22.5081 9.89063 20.4063 9.04687 17.9063 9.04687C15.4375 9.04687 13.3594 9.89063 11.6719 11.5781C9.98437 13.2656 9.14062 15.3594 9.14062 17.8594C9.14062 20.3281 9.98437 22.4144 11.6719 24.1181C13.3594 25.8206 15.4531 26.6719 17.9531 26.6719Z" fill="#3693FF"/>
    </g>
</svg>
