<svg width="45" height="45" viewBox="0 0 45 45" fill="none" xmlns="http://www.w3.org/2000/svg">
    <mask id="mask0_349_464" style="mask-type:alpha" maskUnits="userSpaceOnUse" x="0" y="0" width="45" height="45">
        <rect width="45" height="45" fill="#D9D9D9"/>
    </mask>
    <g mask="url(#mask0_349_464)">
        <path d="M24.5628 39.0938H20.3909C20.0472 39.0938 19.7428 38.9769 19.4778 38.7431C19.2116 38.5081 19.0628 38.2031 19.0316 37.8281L18.4691 33.75C18.0941 33.6562 17.5472 33.4144 16.8284 33.0244C16.1097 32.6331 15.3909 32.1719 14.6722 31.6406L10.9691 33.2344C10.6253 33.3906 10.2816 33.4062 9.93781 33.2812C9.59406 33.1562 9.32843 32.9375 9.14093 32.625L7.03156 28.9219C6.84406 28.6094 6.78968 28.2812 6.86843 27.9375C6.94593 27.5937 7.12531 27.3125 7.40656 27.0937L10.6878 24.6094C10.6253 24.2969 10.5784 23.9688 10.5472 23.625C10.5159 23.2812 10.5003 22.9219 10.5003 22.5469C10.5003 22.2344 10.5159 21.8981 10.5472 21.5381C10.5784 21.1794 10.6253 20.7656 10.6878 20.2969L7.40656 17.9062C7.12531 17.6875 6.94593 17.3981 6.86843 17.0381C6.78968 16.6794 6.84406 16.3438 7.03156 16.0312L9.14093 12.4219C9.32843 12.1406 9.58656 11.9294 9.91531 11.7881C10.2428 11.6481 10.5784 11.6562 10.9222 11.8125L14.6722 13.4062C15.2034 12.9687 15.7972 12.555 16.4534 12.165C17.1097 11.7737 17.7816 11.4687 18.4691 11.25L19.0316 7.125C19.0628 6.78125 19.2116 6.49187 19.4778 6.25687C19.7428 6.02312 20.0472 5.90625 20.3909 5.90625H24.5628C24.9066 5.90625 25.2191 6.02312 25.5003 6.25687C25.7816 6.49187 25.9534 6.78125 26.0159 7.125L26.5316 11.25C27.2503 11.5 27.8909 11.7969 28.4534 12.1406C29.0159 12.4844 29.5941 12.9062 30.1878 13.4062L34.0784 11.8125C34.4222 11.6562 34.7578 11.6406 35.0853 11.7656C35.4141 11.8906 35.6722 12.1094 35.8597 12.4219L37.9691 16.0312C38.1566 16.3438 38.2116 16.6794 38.1341 17.0381C38.0553 17.3981 37.8753 17.6719 37.5941 17.8594L34.1253 20.4844C34.1878 20.8594 34.2347 21.2031 34.2659 21.5156C34.2972 21.8281 34.3128 22.1562 34.3128 22.5C34.3128 22.8125 34.2972 23.125 34.2659 23.4375C34.2347 23.75 34.1722 24.1406 34.0784 24.6094L37.5003 27.0937C37.8128 27.2812 38.0003 27.5544 38.0628 27.9131C38.1253 28.2731 38.0628 28.6094 37.8753 28.9219L35.7659 32.625C35.5784 32.9375 35.3128 33.1481 34.9691 33.2569C34.6253 33.3669 34.2972 33.3438 33.9847 33.1875L30.1878 31.5469C29.6253 32.0469 29.0553 32.4687 28.4778 32.8125C27.8991 33.1562 27.2503 33.4531 26.5316 33.7031L26.0159 37.8281C25.9534 38.2031 25.7816 38.5081 25.5003 38.7431C25.2191 38.9769 24.9066 39.0938 24.5628 39.0938ZM22.4066 27.0469C23.6566 27.0469 24.7272 26.6094 25.6184 25.7344C26.5084 24.8594 26.9534 23.7812 26.9534 22.5C26.9534 21.2188 26.5084 20.1406 25.6184 19.2656C24.7272 18.3906 23.6566 17.9531 22.4066 17.9531C21.1253 17.9531 20.0472 18.3906 19.1722 19.2656C18.2972 20.1406 17.8597 21.2188 17.8597 22.5C17.8597 23.7812 18.2972 24.8594 19.1722 25.7344C20.0472 26.6094 21.1253 27.0469 22.4066 27.0469ZM22.4066 25.3125C21.6253 25.3125 20.9616 25.0387 20.4153 24.4913C19.8678 23.945 19.5941 23.2812 19.5941 22.5C19.5941 21.7188 19.8678 21.055 20.4153 20.5087C20.9616 19.9612 21.6253 19.6875 22.4066 19.6875C23.1566 19.6875 23.8128 19.9612 24.3753 20.5087C24.9378 21.055 25.2191 21.7188 25.2191 22.5C25.2191 23.2812 24.9378 23.945 24.3753 24.4913C23.8128 25.0387 23.1566 25.3125 22.4066 25.3125ZM20.6253 37.3594H24.2816L24.9847 32.25C25.9222 32 26.7503 31.6644 27.4691 31.2431C28.1878 30.8206 28.9378 30.2344 29.7191 29.4844L34.4066 31.5L36.2347 28.3594L32.1097 25.2656C32.2659 24.7344 32.3678 24.25 32.4153 23.8125C32.4616 23.375 32.4847 22.9375 32.4847 22.5C32.4847 22.0312 32.4616 21.5937 32.4153 21.1875C32.3678 20.7812 32.2659 20.3281 32.1097 19.8281L36.3284 16.6406L34.5003 13.4531L29.6722 15.5156C29.1409 14.9219 28.4147 14.3519 27.4934 13.8056C26.5709 13.2581 25.7191 12.8906 24.9378 12.7031L24.3753 7.59375H20.6253L20.0628 12.7031C19.0941 12.9219 18.2347 13.2344 17.4847 13.6406C16.7347 14.0469 15.9691 14.6562 15.1878 15.4687L10.5003 13.4531L8.67218 16.6406L12.7034 19.6406C12.5472 20.0781 12.4378 20.5387 12.3753 21.0225C12.3128 21.5075 12.2816 22 12.2816 22.5C12.2816 22.9688 12.3128 23.43 12.3753 23.8837C12.4378 24.3362 12.5316 24.8125 12.6566 25.3125L8.67218 28.3594L10.5003 31.5L15.1409 29.5312C15.8909 30.2812 16.6491 30.875 17.4153 31.3125C18.1803 31.75 19.0472 32.0781 20.0159 32.2969L20.6253 37.3594Z" fill="#3693FF"/>
    </g>
</svg>
