<svg width="15" height="13" viewBox="0 0 15 13" fill="none" xmlns="http://www.w3.org/2000/svg">
<path d="M3.726 0.202H2.484L0.792 0.795999L1.206 1.984L2.484 1.552V12.802H3.726V0.202ZM8.09353 2.632C7.57153 2.632 7.28353 2.974 7.28353 3.424C7.28353 3.892 7.57153 4.234 8.09353 4.234C8.59753 4.234 8.88553 3.892 8.88553 3.424C8.88553 2.974 8.59753 2.632 8.09353 2.632ZM7.28353 9.49C7.28353 9.94 7.57153 10.3 8.09353 10.3C8.59753 10.3 8.88553 9.94 8.88553 9.49C8.88553 9.04 8.59753 8.698 8.09353 8.698C7.57153 8.698 7.28353 9.04 7.28353 9.49ZM14.3608 0.202H13.1188L11.4268 0.795999L11.8408 1.984L13.1188 1.552V12.802H14.3608V0.202Z" fill="white"/>
</svg>
