<svg width="26" height="13" viewBox="0 0 26 13" fill="none" xmlns="http://www.w3.org/2000/svg">
<path d="M7.326 6.286C8.298 5.656 9.108 4.684 9.108 3.532C9.108 1.552 7.272 0.0939999 5.202 0.0939999C3.15 0.0939999 1.278 1.552 1.278 3.532H2.574C2.574 2.434 3.636 1.354 5.202 1.354C6.768 1.354 7.848 2.452 7.848 3.496C7.848 4.612 6.912 5.638 5.13 5.638H4.176V6.898H5.13C7.2 6.898 8.01 8.068 8.01 9.256C8.01 10.444 6.822 11.632 5.094 11.632C3.384 11.632 2.214 10.426 2.214 9.238H0.918C0.918 11.362 2.898 12.91 5.094 12.91C7.308 12.91 9.288 11.362 9.288 9.238C9.288 7.978 8.388 6.916 7.326 6.286ZM12.7869 2.632C12.2649 2.632 11.9769 2.974 11.9769 3.424C11.9769 3.892 12.2649 4.234 12.7869 4.234C13.2909 4.234 13.5789 3.892 13.5789 3.424C13.5789 2.974 13.2909 2.632 12.7869 2.632ZM11.9769 9.49C11.9769 9.94 12.2649 10.3 12.7869 10.3C13.2909 10.3 13.5789 9.94 13.5789 9.49C13.5789 9.04 13.2909 8.698 12.7869 8.698C12.2649 8.698 11.9769 9.04 11.9769 9.49ZM23.4101 0.202H22.1501L16.2461 8.392V9.634H22.1501V12.802H23.4101V9.634H25.3361V8.392H23.4101V0.202ZM17.7941 8.392L22.1501 2.326V8.392H17.7941Z" fill="white"/>
</svg>
