<svg width="10" height="19" viewBox="0 0 10 19" fill="none" xmlns="http://www.w3.org/2000/svg">
<path d="M8.4749 18.7751L0.249902 10.5751C0.166569 10.4751 0.108236 10.3791 0.0749024 10.2871C0.0415691 10.1958 0.0249023 10.1001 0.0249023 10.0001C0.0249023 9.9001 0.0415691 9.8041 0.0749024 9.7121C0.108236 9.62076 0.166569 9.5251 0.249902 9.4251L8.4999 1.2001C8.63324 1.0501 8.7999 0.975098 8.9999 0.975098C9.1999 0.975098 9.3749 1.05843 9.5249 1.2251C9.6749 1.3751 9.7499 1.5541 9.7499 1.7621C9.7499 1.97076 9.6749 2.14176 9.5249 2.2751L1.8249 10.0001L9.5499 17.7251C9.6999 17.8751 9.7749 18.0458 9.7749 18.2371C9.7749 18.4291 9.69157 18.6084 9.5249 18.7751C9.3749 18.9251 9.1999 19.0001 8.9999 19.0001C8.7999 19.0001 8.6249 18.9251 8.4749 18.7751Z" fill="white"/>
</svg>
