<svg width="45" height="45" viewBox="0 0 45 45" fill="none" xmlns="http://www.w3.org/2000/svg">
<mask id="mask0_209_493" style="mask-type:alpha" maskUnits="userSpaceOnUse" x="0" y="0" width="45" height="45">
<rect width="45" height="45" fill="#3693FF"/>
</mask>
<g mask="url(#mask0_209_493)">
<path d="M12.4219 35.626C11.5469 35.626 10.8206 35.3372 10.2431 34.7597C9.66437 34.181 9.375 33.4541 9.375 32.5791V28.126H11.25V32.5791C11.25 32.8916 11.3675 33.1647 11.6025 33.3985C11.8363 33.6335 12.1094 33.751 12.4219 33.751H32.5781C32.8906 33.751 33.1637 33.6335 33.3975 33.3985C33.6325 33.1647 33.75 32.8916 33.75 32.5791V28.126H35.625V32.5791C35.625 33.4541 35.3363 34.181 34.7588 34.7597C34.18 35.3372 33.4531 35.626 32.5781 35.626H12.4219ZM21.5625 28.5479V12.3291L17.2031 16.6885L15.8437 15.376L22.5 8.71973L29.1562 15.376L27.7969 16.6885L23.4375 12.3291V28.5479H21.5625Z" fill="white"/>
</g>
</svg>
