<svg width="17" height="18" viewBox="0 0 17 18" fill="none" xmlns="http://www.w3.org/2000/svg">
<path d="M13.4824 11.9941C13.4824 12.3574 13.4707 12.7734 13.4473 13.2422C13.4355 13.7109 13.418 14.1797 13.3945 14.6484C13.3711 15.1172 13.3418 15.5625 13.3066 15.9844C13.2715 16.4062 13.2305 16.752 13.1836 17.0215L12.4453 17.1094C12.4219 16.9102 12.3984 16.6582 12.375 16.3535C12.3516 16.0605 12.334 15.7383 12.3223 15.3867C12.3105 15.0469 12.2988 14.6953 12.2871 14.332C12.2871 13.9688 12.2871 13.6172 12.2871 13.2773V2.15039C12.2871 1.75195 12.1055 1.43555 11.7422 1.20117C11.3906 0.955078 10.8398 0.744141 10.0898 0.568359L10.3008 0.09375C10.8867 0.164062 11.4785 0.257813 12.0762 0.375C12.6738 0.480469 13.2012 0.580078 13.6582 0.673828C13.6113 0.884766 13.5703 1.125 13.5352 1.39453C13.5 1.66406 13.4824 1.91602 13.4824 2.15039V7.82812C13.9629 7.80469 14.5078 7.76367 15.1172 7.70508C15.7383 7.63477 16.3652 7.55273 16.998 7.45898L16.8223 8.56641C16.5762 8.55469 16.3066 8.54883 16.0137 8.54883C15.7324 8.54883 15.4395 8.54883 15.1348 8.54883C14.8418 8.54883 14.5488 8.55469 14.2559 8.56641C13.9746 8.56641 13.7168 8.56641 13.4824 8.56641V11.9941ZM9.47461 3.48633C9.13477 4.50586 8.67773 5.49609 8.10352 6.45703C7.5293 7.41797 6.87891 8.32031 6.15234 9.16406C5.42578 10.0078 4.63477 10.7695 3.7793 11.4492C2.93555 12.1289 2.07422 12.6914 1.19531 13.1367L0.791016 12.75C1.64648 12.2461 2.44336 11.6602 3.18164 10.9922C3.93164 10.3242 4.60547 9.60938 5.20312 8.84766C5.80078 8.08594 6.31641 7.30078 6.75 6.49219C7.18359 5.67188 7.51758 4.86914 7.75195 4.08398C7.57617 4.08398 7.33594 4.08984 7.03125 4.10156C6.73828 4.11328 6.42773 4.125 6.09961 4.13672C5.7832 4.14844 5.47266 4.16016 5.16797 4.17188C4.875 4.18359 4.64648 4.18945 4.48242 4.18945C4.35352 4.18945 4.18945 4.20117 3.99023 4.22461C3.79102 4.23633 3.57422 4.25391 3.33984 4.27734C3.11719 4.30078 2.88867 4.32422 2.6543 4.34766C2.41992 4.37109 2.20312 4.40039 2.00391 4.43555L1.31836 3.32812C1.62305 3.38672 2.00391 3.43359 2.46094 3.46875C2.91797 3.50391 3.33984 3.52148 3.72656 3.52148C4.16016 3.52148 4.61719 3.51562 5.09766 3.50391C5.58984 3.49219 6.07031 3.46875 6.53906 3.43359C7.01953 3.39844 7.47656 3.35742 7.91016 3.31055C8.34375 3.25195 8.72461 3.18164 9.05273 3.09961L9.47461 3.48633Z" fill="white"/>
</svg>
