<svg width="22" height="20" viewBox="0 0 22 20" fill="none" xmlns="http://www.w3.org/2000/svg">
<path d="M11 15.5119C12.225 15.5119 13.2556 15.0938 14.0917 14.2577C14.9278 13.4216 15.3458 12.391 15.3458 11.166C15.3458 9.94102 14.9278 8.91046 14.0917 8.07435C13.2556 7.23824 12.225 6.82018 11 6.82018C9.775 6.82018 8.74444 7.23824 7.90833 8.07435C7.07222 8.91046 6.65417 9.94102 6.65417 11.166C6.65417 12.391 7.07222 13.4216 7.90833 14.2577C8.74444 15.0938 9.775 15.5119 11 15.5119ZM11 14.3452C10.0861 14.3452 9.32778 14.0438 8.725 13.441C8.12222 12.8382 7.82083 12.0799 7.82083 11.166C7.82083 10.2521 8.12222 9.49379 8.725 8.89102C9.32778 8.28824 10.0861 7.98685 11 7.98685C11.9139 7.98685 12.6722 8.28824 13.275 8.89102C13.8778 9.49379 14.1792 10.2521 14.1792 11.166C14.1792 12.0799 13.8778 12.8382 13.275 13.441C12.6722 14.0438 11.9139 14.3452 11 14.3452ZM2.39583 19.3327C1.85139 19.3327 1.3995 19.153 1.04017 18.7937C0.680056 18.4336 0.5 17.9813 0.5 17.4368V4.89518C0.5 4.35074 0.680056 3.89885 1.04017 3.53952C1.3995 3.1794 1.85139 2.99935 2.39583 2.99935H5.8375L7.99583 0.666016H14.0042L16.1625 2.99935H19.6042C20.1486 2.99935 20.6009 3.1794 20.961 3.53952C21.3203 3.89885 21.5 4.35074 21.5 4.89518V17.4368C21.5 17.9813 21.3203 18.4336 20.961 18.7937C20.6009 19.153 20.1486 19.3327 19.6042 19.3327H2.39583ZM19.6042 18.166C19.8181 18.166 19.9931 18.098 20.1292 17.9619C20.2653 17.8257 20.3333 17.6507 20.3333 17.4368V4.89518C20.3333 4.68129 20.2653 4.50629 20.1292 4.37018C19.9931 4.23407 19.8181 4.16602 19.6042 4.16602H15.6667L13.5083 1.83268H8.49167L6.33333 4.16602H2.39583C2.18194 4.16602 2.00694 4.23407 1.87083 4.37018C1.73472 4.50629 1.66667 4.68129 1.66667 4.89518V17.4368C1.66667 17.6507 1.73472 17.8257 1.87083 17.9619C2.00694 18.098 2.18194 18.166 2.39583 18.166H19.6042Z" fill="white"/>
</svg>
