<svg width="28" height="29" viewBox="0 0 28 29" fill="none" xmlns="http://www.w3.org/2000/svg">
    <g clip-path="url(#clip0_174_381)">
        <path fill-rule="evenodd" clip-rule="evenodd" d="M28.0001 14.7952C28.0001 13.7689 27.9086 12.7836 27.7404 11.8364H14.2861V17.4323H21.9749C21.6438 19.2408 20.6371 20.7726 19.1244 21.7989V25.4281H23.7419C26.443 22.9096 28.0015 19.2013 28.0015 14.7952H28.0001Z" fill="#3E82F1"/>
        <path fill-rule="evenodd" clip-rule="evenodd" d="M14.2861 28.9334C18.1432 28.9334 21.3773 27.6373 23.7405 25.4281L19.123 21.7988C17.8431 22.667 16.2079 23.1794 14.2847 23.1794C10.5635 23.1794 7.41427 20.635 6.2905 17.2156H1.51953V20.9634C3.8707 25.6911 8.70088 28.9334 14.2861 28.9334Z" fill="#32A753"/>
        <path fill-rule="evenodd" clip-rule="evenodd" d="M6.29176 17.2156C6.00644 16.3474 5.84359 15.4207 5.84359 14.4667C5.84359 13.5127 6.00644 12.5859 6.29176 11.7178V7.96997H1.51944C0.55179 9.92294 0 12.1321 0 14.4667C0 16.8012 0.55179 19.0104 1.51944 20.9634L6.29176 17.2156Z" fill="#F9BB00"/>
        <path fill-rule="evenodd" clip-rule="evenodd" d="M14.2861 5.75396C16.3829 5.75396 18.267 6.48445 19.7475 7.9168L23.8455 3.76692C21.3705 1.43372 18.1365 0 14.2861 0C8.70088 0 3.8707 3.24222 1.51953 7.96995L6.29185 11.7178C7.41561 8.2984 10.5649 5.75396 14.2861 5.75396Z" fill="#E74133"/>
    </g>
    <defs>
        <clipPath id="clip0_174_381">
            <rect width="28" height="28.9333" fill="white"/>
        </clipPath>
    </defs>
</svg>
