<svg width="110" height="25" viewBox="0 0 110 25" fill="none" xmlns="http://www.w3.org/2000/svg">
    <path d="M3.14189 2.07811V24.9219H0V0H5.05434L19.6958 21.8093L34.3496 0H39.5312V24.9219H36.3894V2.41676L21.4685 24.9219H18.2925L3.14189 2.07811Z" fill="white"/>
    <path d="M46.0388 6.01562V16.222C46.0388 17.3588 46.1237 18.3183 46.2934 19.1006C46.4631 19.8829 46.8056 20.5124 47.3178 20.9891C47.8299 21.4688 48.5543 21.8141 49.4907 22.025C50.4272 22.2389 51.6668 22.3428 53.2003 22.3428C54.8641 22.3428 56.2249 22.2205 57.2856 21.9761C58.3463 21.7316 59.1798 21.3863 59.7889 20.9402C60.3951 20.494 60.8163 19.9562 61.0436 19.3298C61.274 18.7033 61.3861 18.0066 61.3861 17.2396V6.01562H64.4531V24.5674H61.3861V21.3252C61.2376 21.6736 60.986 22.0555 60.6345 22.4772C60.2829 22.8989 59.7556 23.287 59.0525 23.6445C58.3494 24.0021 57.4402 24.3046 56.3249 24.5521C55.2096 24.7996 53.8276 24.9219 52.1759 24.9219C50.803 24.9219 49.6241 24.8394 48.6422 24.6713C47.6602 24.5032 46.8238 24.2588 46.1358 23.9318C45.4509 23.6048 44.8993 23.1984 44.4841 22.7156C44.0689 22.2328 43.7507 21.6705 43.5264 21.0318C43.3021 20.3932 43.1536 19.6812 43.0809 18.8989C43.0051 18.1166 42.9688 17.2549 42.9688 16.3228L42.9839 6.01562H46.0358H46.0388Z" fill="white"/>
    <path d="M99.3597 24.9219C97.2303 24.9219 95.4259 24.7757 93.9401 24.4866C92.4543 24.1974 91.2461 23.6968 90.3155 22.9879C89.3849 22.279 88.7099 21.3276 88.2872 20.1367C87.8645 18.9459 87.6562 17.4503 87.6562 15.6469C87.6562 13.5824 87.8676 11.8754 88.2872 10.526C88.7067 9.17654 89.3849 8.10384 90.3155 7.30476C91.2461 6.50878 92.4543 5.94911 93.9401 5.63197C95.4259 5.31482 97.2335 5.15625 99.3597 5.15625C100.877 5.15625 102.196 5.26507 103.309 5.48272C104.423 5.70037 105.375 6.01752 106.167 6.43416C106.959 6.84769 107.603 7.35139 108.095 7.94216C108.587 8.53292 108.975 9.15166 109.259 9.8015C109.543 10.4513 109.735 11.2131 109.839 12.0868C109.943 12.9605 109.997 13.884 109.997 14.8572L109.732 15.905H90.8455C90.8455 17.3104 90.9906 18.4639 91.2777 19.3625C91.5648 20.2611 92.0411 20.9202 92.7067 21.3369C93.3723 21.7535 94.2461 22.0147 95.3345 22.1266C96.4196 22.2386 97.7603 22.2945 99.3565 22.2945C100.82 22.2945 102.032 22.2572 102.991 22.1764C103.95 22.0987 104.71 21.9525 105.278 21.7349C105.842 21.5172 106.24 21.2156 106.467 20.827C106.694 20.4383 106.808 19.9346 106.808 19.3128H110C110 20.3295 109.82 21.1939 109.461 21.909C109.101 22.6241 108.505 23.2024 107.672 23.6471C106.839 24.0886 105.745 24.412 104.388 24.6141C103.032 24.8162 101.353 24.9188 99.3597 24.9188V24.9219ZM99.3597 7.78047C98.2966 7.78047 97.3439 7.80224 96.5079 7.84577C95.672 7.8893 94.9401 7.98569 94.3124 8.13182C93.6846 8.27796 93.1515 8.4925 92.7067 8.77233C92.2619 9.05216 91.9054 9.37864 91.6342 9.75486C91.3629 10.1311 91.1641 10.6628 91.0348 11.3437C90.9086 12.0277 90.8424 12.8486 90.8424 13.8093H106.801C106.801 12.5314 106.662 11.5303 106.385 10.8027C106.107 10.0751 105.669 9.47813 105.073 9.00863C104.473 8.53913 103.704 8.21577 102.76 8.04165C101.817 7.86753 100.681 7.78047 99.3534 7.78047H99.3597Z" fill="white"/>
    <path d="M75.019 5.67862V24.5508H77.6396V5.67862H75.019Z" fill="white"/>
    <path d="M85.7686 13.8047H66.8965V16.4252H85.7686V13.8047Z" fill="white"/>
</svg>
