<svg width="150" height="34" viewBox="0 0 150 34" fill="none" xmlns="http://www.w3.org/2000/svg">
    <path d="M4.27651 2.82857V33.9219H0V0H6.8796L26.8085 29.6853L46.7542 0H53.8071V33.9219H49.5306V3.28952L29.2214 33.9219H24.8984L4.27651 2.82857Z" fill="white"/>
    <path d="M62.6646 8.18799V22.0802C62.6646 23.6275 62.7801 24.9335 63.0111 25.9983C63.2421 27.0631 63.7082 27.9199 64.4054 28.5688C65.1025 29.2218 66.0884 29.6918 67.3631 29.9788C68.6378 30.2699 70.3249 30.4113 72.4123 30.4113C74.6769 30.4113 76.5291 30.245 77.9729 29.9122C79.4167 29.5795 80.5511 29.1095 81.3803 28.5022C82.2053 27.8949 82.7787 27.1629 83.0881 26.3102C83.4016 25.4576 83.5542 24.5092 83.5542 23.4652V8.18799H87.7288V33.4393H83.5542V29.0263C83.3521 29.5004 83.0097 30.0204 82.5312 30.5944C82.0527 31.1683 81.3349 31.6966 80.3779 32.1832C79.4208 32.6699 78.1833 33.0816 76.6653 33.4185C75.1472 33.7555 73.2662 33.9218 71.018 33.9218C69.1493 33.9218 67.5446 33.8095 66.2081 33.5808C64.8715 33.352 63.733 33.0193 62.7966 32.5742C61.8643 32.1292 61.1135 31.576 60.5484 30.9188C59.9833 30.2616 59.5501 29.4963 59.2449 28.627C58.9396 27.7577 58.7375 26.7886 58.6385 25.7238C58.5353 24.659 58.4858 23.486 58.4858 22.2174L58.5065 8.18799H62.6605H62.6646Z" fill="white"/>
    <path d="M135.241 33.9219C132.343 33.9219 129.887 33.723 127.865 33.3294C125.842 32.9358 124.198 32.2544 122.931 31.2895C121.665 30.3246 120.746 29.0295 120.17 27.4086C119.595 25.7877 119.312 23.7521 119.312 21.2975C119.312 18.4873 119.599 16.1639 120.17 14.3272C120.741 12.4904 121.665 11.0304 122.931 9.9427C124.198 8.85928 125.842 8.0975 127.865 7.66582C129.887 7.23415 132.347 7.01831 135.241 7.01831C137.307 7.01831 139.101 7.16643 140.617 7.46268C142.133 7.75893 143.43 8.19061 144.507 8.75771C145.585 9.32058 146.461 10.0062 147.131 10.8103C147.801 11.6144 148.329 12.4566 148.715 13.3411C149.102 14.2256 149.364 15.2625 149.505 16.4517C149.647 17.6409 149.72 18.8979 149.72 20.2225L149.359 21.6487H123.653C123.653 23.5616 123.85 25.1318 124.241 26.3548C124.632 27.5779 125.28 28.4751 126.186 29.0422C127.092 29.6093 128.281 29.9648 129.763 30.1172C131.24 30.2696 133.064 30.3457 135.237 30.3457C137.229 30.3457 138.878 30.2949 140.184 30.1849C141.489 30.0791 142.524 29.8802 143.296 29.584C144.065 29.2877 144.606 28.8772 144.915 28.3482C145.224 27.8192 145.379 27.1336 145.379 26.2871H149.724C149.724 27.671 149.479 28.8476 148.99 29.8209C148.501 30.7943 147.689 31.5815 146.555 32.1867C145.422 32.7877 143.932 33.2278 142.086 33.5029C140.239 33.778 137.955 33.9176 135.241 33.9176V33.9219ZM135.241 10.5902C133.794 10.5902 132.498 10.6198 131.36 10.6791C130.222 10.7383 129.226 10.8695 128.371 11.0684C127.517 11.2674 126.791 11.5594 126.186 11.9403C125.58 12.3212 125.095 12.7655 124.726 13.2776C124.357 13.7897 124.086 14.5134 123.91 15.4402C123.738 16.3713 123.648 17.4886 123.648 18.7963H145.37C145.37 17.0569 145.181 15.6941 144.804 14.7038C144.426 13.7135 143.829 12.901 143.017 12.2619C142.202 11.6229 141.154 11.1827 139.87 10.9457C138.586 10.7087 137.04 10.5902 135.233 10.5902H135.241Z" fill="white"/>
    <path d="M102.11 7.72956V33.417H105.677V7.72956H102.11Z" fill="white"/>
    <path d="M116.742 18.79H91.0547V22.3569H116.742V18.79Z" fill="white"/>
</svg>
