<svg width="24" height="24" viewBox="0 0 24 24" fill="none" xmlns="http://www.w3.org/2000/svg">
    <mask id="mask0_88_266" style="mask-type:alpha" maskUnits="userSpaceOnUse" x="0" y="0" width="24" height="24">
        <rect width="24" height="24" fill="#D9D9D9"/>
    </mask>
    <g mask="url(#mask0_88_266)">
        <path d="M9.05 16.95C8.93333 16.85 8.875 16.7333 8.875 16.6C8.875 16.4667 8.93333 16.35 9.05 16.25L13.3 12L9.05 7.75C8.93333 7.65 8.875 7.53333 8.875 7.4C8.875 7.26667 8.93333 7.15 9.05 7.05C9.15 6.93333 9.26667 6.875 9.4 6.875C9.53333 6.875 9.65 6.93333 9.75 7.05L14.15 11.425C14.2333 11.525 14.2917 11.6207 14.325 11.712C14.3583 11.804 14.375 11.9 14.375 12C14.375 12.1 14.3583 12.1957 14.325 12.287C14.2917 12.379 14.2333 12.475 14.15 12.575L9.75 16.95C9.65 17.0667 9.53333 17.125 9.4 17.125C9.26667 17.125 9.15 17.0667 9.05 16.95Z" fill="white"/>
    </g>
</svg>
