<svg width="24" height="24" viewBox="0 0 24 24" fill="none" xmlns="http://www.w3.org/2000/svg">
    <mask id="mask0_88_245" style="mask-type:alpha" maskUnits="userSpaceOnUse" x="0" y="0" width="24" height="24">
        <rect width="24" height="24" fill="#D9D9D9"/>
    </mask>
    <g mask="url(#mask0_88_245)">
        <path d="M13.6499 16.95L9.2499 12.575C9.16657 12.475 9.10824 12.379 9.0749 12.287C9.04157 12.1957 9.0249 12.1 9.0249 12C9.0249 11.9 9.04157 11.804 9.0749 11.712C9.10824 11.6207 9.16657 11.525 9.2499 11.425L13.6499 7.05C13.7499 6.93333 13.8666 6.875 13.9999 6.875C14.1332 6.875 14.2499 6.93333 14.3499 7.05C14.4666 7.15 14.5249 7.26667 14.5249 7.4C14.5249 7.53333 14.4666 7.65 14.3499 7.75L10.0999 12L14.3499 16.25C14.4666 16.35 14.5249 16.4667 14.5249 16.6C14.5249 16.7333 14.4666 16.85 14.3499 16.95C14.2499 17.0667 14.1332 17.125 13.9999 17.125C13.8666 17.125 13.7499 17.0667 13.6499 16.95Z" fill="#888888"/>
    </g>
</svg>
