<svg width="28" height="28" viewBox="0 0 28 28" fill="none" xmlns="http://www.w3.org/2000/svg">
    <path d="M25.7918 26.8333L16.0418 17.0417C15.2085 17.7361 14.2502 18.2778 13.1668 18.6667C12.0835 19.0556 11.0141 19.25 9.9585 19.25C7.31961 19.25 5.09738 18.34 3.29183 16.52C1.48627 14.7011 0.583496 12.4861 0.583496 9.875C0.583496 7.26389 1.48627 5.04833 3.29183 3.22833C5.09738 1.40944 7.30572 0.5 9.91683 0.5C12.5557 0.5 14.7846 1.40278 16.6035 3.20833C18.4235 5.01389 19.3335 7.23611 19.3335 9.875C19.3335 11.0139 19.1252 12.125 18.7085 13.2083C18.2918 14.2917 17.764 15.2083 17.1252 15.9583L26.9585 25.75C27.0974 25.8889 27.1602 26.0628 27.1468 26.2717C27.1324 26.4794 27.0557 26.6667 26.9168 26.8333C26.7224 27 26.5279 27.0833 26.3335 27.0833C26.139 27.0833 25.9585 27 25.7918 26.8333ZM9.9585 17.7083C12.1529 17.7083 14.0074 16.9517 15.5218 15.4383C17.0352 13.9239 17.7918 12.0694 17.7918 9.875C17.7918 7.65278 17.0352 5.79167 15.5218 4.29167C14.0074 2.79167 12.1391 2.04167 9.91683 2.04167C7.72238 2.04167 5.87516 2.79167 4.37516 4.29167C2.87516 5.79167 2.12516 7.65278 2.12516 9.875C2.12516 12.0694 2.87516 13.9239 4.37516 15.4383C5.87516 16.9517 7.73627 17.7083 9.9585 17.7083Z" fill="#3693FF"/>
</svg>
