<svg width="24" height="24" viewBox="0 0 24 24" fill="none" xmlns="http://www.w3.org/2000/svg">
    <mask id="mask0_210_1220" style="mask-type:alpha" maskUnits="userSpaceOnUse" x="0" y="0" width="24" height="24">
        <rect width="24" height="24" fill="#D9D9D9"/>
    </mask>
    <g mask="url(#mask0_210_1220)">
        <path d="M5.79995 21C5.34995 21 4.97062 20.846 4.66195 20.538C4.35395 20.2293 4.19995 19.8417 4.19995 19.375V5.625C4.19995 5.15833 4.35395 4.771 4.66195 4.463C4.97062 4.15433 5.34995 4 5.79995 4H12.225V5H5.79995C5.64995 5 5.51262 5.06267 5.38795 5.188C5.26262 5.31267 5.19995 5.45833 5.19995 5.625V19.375C5.19995 19.5417 5.26262 19.6873 5.38795 19.812C5.51262 19.9373 5.64995 20 5.79995 20H12.225V21H5.79995ZM16.275 16.05L15.575 15.325L17.875 13H9.22495V12H17.875L15.575 9.675L16.275 8.95L19.8 12.5L16.275 16.05Z" fill="#888888"/>
    </g>
</svg>
